<mxfile host="Electron" agent="Mozilla/5.0 (Windows NT 10.0; Win64; x64) AppleWebKit/537.36 (KHTML, like Gecko) draw.io/26.1.1 Chrome/132.0.6834.210 Electron/34.3.3 Safari/537.36" version="26.1.1">
  <diagram name="Страница 1" id="vaVnpeOQBWc_vJTZJ6nx">
    <mxGraphModel dx="1843" dy="2056" grid="1" gridSize="10" guides="1" tooltips="1" connect="1" arrows="1" fold="1" page="1" pageScale="1" pageWidth="827" pageHeight="1169" math="0" shadow="0">
      <root>
        <mxCell id="0" />
        <mxCell id="1" parent="0" />
        <mxCell id="XW4laHf70i-aS3ndhYvc-2" value="1" style="ellipse;whiteSpace=wrap;html=1;aspect=fixed;" parent="1" vertex="1">
          <mxGeometry x="160" y="170" width="30" height="30" as="geometry" />
        </mxCell>
        <mxCell id="iH4nYuXcYwgbLmIbxw34-3" style="edgeStyle=orthogonalEdgeStyle;rounded=0;orthogonalLoop=1;jettySize=auto;html=1;exitX=1;exitY=0.5;exitDx=0;exitDy=0;entryX=0;entryY=0.5;entryDx=0;entryDy=0;" edge="1" parent="1" source="iH4nYuXcYwgbLmIbxw34-2" target="XW4laHf70i-aS3ndhYvc-2">
          <mxGeometry relative="1" as="geometry" />
        </mxCell>
        <mxCell id="iH4nYuXcYwgbLmIbxw34-4" value="Z1/5" style="edgeLabel;html=1;align=center;verticalAlign=middle;resizable=0;points=[];" vertex="1" connectable="0" parent="iH4nYuXcYwgbLmIbxw34-3">
          <mxGeometry x="-0.0353" y="3" relative="1" as="geometry">
            <mxPoint y="3" as="offset" />
          </mxGeometry>
        </mxCell>
        <mxCell id="iH4nYuXcYwgbLmIbxw34-2" value="0" style="ellipse;whiteSpace=wrap;html=1;aspect=fixed;" vertex="1" parent="1">
          <mxGeometry x="50" y="170" width="30" height="30" as="geometry" />
        </mxCell>
        <mxCell id="iH4nYuXcYwgbLmIbxw34-5" value="2" style="ellipse;whiteSpace=wrap;html=1;aspect=fixed;" vertex="1" parent="1">
          <mxGeometry x="254" y="20" width="30" height="30" as="geometry" />
        </mxCell>
        <mxCell id="iH4nYuXcYwgbLmIbxw34-6" value="3" style="ellipse;whiteSpace=wrap;html=1;aspect=fixed;" vertex="1" parent="1">
          <mxGeometry x="354" y="20" width="30" height="30" as="geometry" />
        </mxCell>
        <mxCell id="iH4nYuXcYwgbLmIbxw34-7" style="edgeStyle=orthogonalEdgeStyle;rounded=0;orthogonalLoop=1;jettySize=auto;html=1;exitX=1;exitY=0.5;exitDx=0;exitDy=0;entryX=0;entryY=0.5;entryDx=0;entryDy=0;" edge="1" parent="1" source="iH4nYuXcYwgbLmIbxw34-5" target="iH4nYuXcYwgbLmIbxw34-6">
          <mxGeometry relative="1" as="geometry">
            <mxPoint x="244" y="80" as="sourcePoint" />
            <mxPoint x="314" y="-10" as="targetPoint" />
            <Array as="points" />
          </mxGeometry>
        </mxCell>
        <mxCell id="iH4nYuXcYwgbLmIbxw34-13" value="Z2/3" style="edgeLabel;html=1;align=center;verticalAlign=middle;resizable=0;points=[];" vertex="1" connectable="0" parent="iH4nYuXcYwgbLmIbxw34-7">
          <mxGeometry x="-0.0224" y="2" relative="1" as="geometry">
            <mxPoint x="-4" y="2" as="offset" />
          </mxGeometry>
        </mxCell>
        <mxCell id="iH4nYuXcYwgbLmIbxw34-17" value="4" style="ellipse;whiteSpace=wrap;html=1;aspect=fixed;" vertex="1" parent="1">
          <mxGeometry x="460" y="-95" width="30" height="30" as="geometry" />
        </mxCell>
        <mxCell id="iH4nYuXcYwgbLmIbxw34-18" value="6" style="ellipse;whiteSpace=wrap;html=1;aspect=fixed;" vertex="1" parent="1">
          <mxGeometry x="460" y="-30" width="30" height="30" as="geometry" />
        </mxCell>
        <mxCell id="iH4nYuXcYwgbLmIbxw34-20" value="&lt;div&gt;&lt;br&gt;&lt;/div&gt;&lt;div&gt;&lt;br&gt;&lt;/div&gt;" style="html=1;verticalAlign=bottom;endArrow=open;dashed=1;endSize=8;curved=0;rounded=0;exitX=1;exitY=0.5;exitDx=0;exitDy=0;entryX=0;entryY=1;entryDx=0;entryDy=0;" edge="1" parent="1" source="iH4nYuXcYwgbLmIbxw34-6" target="iH4nYuXcYwgbLmIbxw34-17">
          <mxGeometry relative="1" as="geometry">
            <mxPoint x="404" y="34.620000000000005" as="sourcePoint" />
            <mxPoint x="444" y="34.620000000000005" as="targetPoint" />
          </mxGeometry>
        </mxCell>
        <mxCell id="iH4nYuXcYwgbLmIbxw34-22" value="&lt;div&gt;&lt;br&gt;&lt;/div&gt;&lt;div&gt;&lt;br&gt;&lt;/div&gt;" style="html=1;verticalAlign=bottom;endArrow=open;dashed=1;endSize=8;curved=0;rounded=0;exitX=1;exitY=0.5;exitDx=0;exitDy=0;entryX=0;entryY=0.5;entryDx=0;entryDy=0;" edge="1" parent="1" source="iH4nYuXcYwgbLmIbxw34-6" target="iH4nYuXcYwgbLmIbxw34-18">
          <mxGeometry relative="1" as="geometry">
            <mxPoint x="390" y="34" as="sourcePoint" />
            <mxPoint x="448.3933982822018" y="54.393398282201815" as="targetPoint" />
          </mxGeometry>
        </mxCell>
        <mxCell id="iH4nYuXcYwgbLmIbxw34-23" value="5" style="ellipse;whiteSpace=wrap;html=1;aspect=fixed;" vertex="1" parent="1">
          <mxGeometry x="560" y="-95" width="30" height="30" as="geometry" />
        </mxCell>
        <mxCell id="iH4nYuXcYwgbLmIbxw34-24" style="edgeStyle=orthogonalEdgeStyle;rounded=0;orthogonalLoop=1;jettySize=auto;html=1;exitX=1;exitY=0.5;exitDx=0;exitDy=0;entryX=0;entryY=0.5;entryDx=0;entryDy=0;" edge="1" parent="1" target="iH4nYuXcYwgbLmIbxw34-23" source="iH4nYuXcYwgbLmIbxw34-17">
          <mxGeometry relative="1" as="geometry">
            <mxPoint x="490" y="-70" as="sourcePoint" />
            <mxPoint x="400" y="-60" as="targetPoint" />
          </mxGeometry>
        </mxCell>
        <mxCell id="iH4nYuXcYwgbLmIbxw34-25" value="Z3/5" style="edgeLabel;html=1;align=center;verticalAlign=middle;resizable=0;points=[];" vertex="1" connectable="0" parent="iH4nYuXcYwgbLmIbxw34-24">
          <mxGeometry x="-0.0224" y="2" relative="1" as="geometry">
            <mxPoint x="-5" y="2" as="offset" />
          </mxGeometry>
        </mxCell>
        <mxCell id="iH4nYuXcYwgbLmIbxw34-26" value="7" style="ellipse;whiteSpace=wrap;html=1;aspect=fixed;" vertex="1" parent="1">
          <mxGeometry x="560" y="-30" width="30" height="30" as="geometry" />
        </mxCell>
        <mxCell id="iH4nYuXcYwgbLmIbxw34-27" style="edgeStyle=orthogonalEdgeStyle;rounded=0;orthogonalLoop=1;jettySize=auto;html=1;exitX=1;exitY=0.5;exitDx=0;exitDy=0;entryX=0;entryY=0.5;entryDx=0;entryDy=0;" edge="1" parent="1" target="iH4nYuXcYwgbLmIbxw34-26" source="iH4nYuXcYwgbLmIbxw34-18">
          <mxGeometry relative="1" as="geometry">
            <mxPoint x="490" y="-15" as="sourcePoint" />
            <mxPoint x="400" y="-5" as="targetPoint" />
          </mxGeometry>
        </mxCell>
        <mxCell id="iH4nYuXcYwgbLmIbxw34-28" value="Z4/5" style="edgeLabel;html=1;align=center;verticalAlign=middle;resizable=0;points=[];" vertex="1" connectable="0" parent="iH4nYuXcYwgbLmIbxw34-27">
          <mxGeometry x="-0.0224" y="2" relative="1" as="geometry">
            <mxPoint x="-4" y="2" as="offset" />
          </mxGeometry>
        </mxCell>
        <mxCell id="iH4nYuXcYwgbLmIbxw34-30" value="26" style="ellipse;whiteSpace=wrap;html=1;aspect=fixed;" vertex="1" parent="1">
          <mxGeometry x="254" y="165" width="30" height="30" as="geometry" />
        </mxCell>
        <mxCell id="iH4nYuXcYwgbLmIbxw34-33" value="32" style="ellipse;whiteSpace=wrap;html=1;aspect=fixed;" vertex="1" parent="1">
          <mxGeometry x="254" y="80" width="30" height="30" as="geometry" />
        </mxCell>
        <mxCell id="iH4nYuXcYwgbLmIbxw34-36" value="30" style="ellipse;whiteSpace=wrap;html=1;aspect=fixed;" vertex="1" parent="1">
          <mxGeometry x="254" y="215" width="30" height="30" as="geometry" />
        </mxCell>
        <mxCell id="iH4nYuXcYwgbLmIbxw34-39" value="28" style="ellipse;whiteSpace=wrap;html=1;aspect=fixed;" vertex="1" parent="1">
          <mxGeometry x="254" y="125" width="30" height="30" as="geometry" />
        </mxCell>
        <mxCell id="iH4nYuXcYwgbLmIbxw34-45" value="27" style="ellipse;whiteSpace=wrap;html=1;aspect=fixed;" vertex="1" parent="1">
          <mxGeometry x="354" y="165" width="30" height="30" as="geometry" />
        </mxCell>
        <mxCell id="iH4nYuXcYwgbLmIbxw34-46" style="edgeStyle=orthogonalEdgeStyle;rounded=0;orthogonalLoop=1;jettySize=auto;html=1;exitX=1;exitY=0.5;exitDx=0;exitDy=0;entryX=0;entryY=0.5;entryDx=0;entryDy=0;" edge="1" parent="1" target="iH4nYuXcYwgbLmIbxw34-45">
          <mxGeometry relative="1" as="geometry">
            <mxPoint x="284" y="180" as="sourcePoint" />
            <mxPoint x="314" y="135" as="targetPoint" />
            <Array as="points" />
          </mxGeometry>
        </mxCell>
        <mxCell id="iH4nYuXcYwgbLmIbxw34-47" value="Z14/2" style="edgeLabel;html=1;align=center;verticalAlign=middle;resizable=0;points=[];" vertex="1" connectable="0" parent="iH4nYuXcYwgbLmIbxw34-46">
          <mxGeometry x="-0.0224" y="2" relative="1" as="geometry">
            <mxPoint x="-4" y="2" as="offset" />
          </mxGeometry>
        </mxCell>
        <mxCell id="iH4nYuXcYwgbLmIbxw34-48" value="29" style="ellipse;whiteSpace=wrap;html=1;aspect=fixed;" vertex="1" parent="1">
          <mxGeometry x="354" y="125" width="30" height="30" as="geometry" />
        </mxCell>
        <mxCell id="iH4nYuXcYwgbLmIbxw34-49" style="edgeStyle=orthogonalEdgeStyle;rounded=0;orthogonalLoop=1;jettySize=auto;html=1;exitX=1;exitY=0.5;exitDx=0;exitDy=0;entryX=0;entryY=0.5;entryDx=0;entryDy=0;" edge="1" parent="1" target="iH4nYuXcYwgbLmIbxw34-48">
          <mxGeometry relative="1" as="geometry">
            <mxPoint x="284" y="140" as="sourcePoint" />
            <mxPoint x="314" y="95" as="targetPoint" />
            <Array as="points" />
          </mxGeometry>
        </mxCell>
        <mxCell id="iH4nYuXcYwgbLmIbxw34-50" value="Z15/3" style="edgeLabel;html=1;align=center;verticalAlign=middle;resizable=0;points=[];" vertex="1" connectable="0" parent="iH4nYuXcYwgbLmIbxw34-49">
          <mxGeometry x="-0.0224" y="2" relative="1" as="geometry">
            <mxPoint x="-4" y="2" as="offset" />
          </mxGeometry>
        </mxCell>
        <mxCell id="iH4nYuXcYwgbLmIbxw34-51" value="31" style="ellipse;whiteSpace=wrap;html=1;aspect=fixed;" vertex="1" parent="1">
          <mxGeometry x="354" y="215" width="30" height="30" as="geometry" />
        </mxCell>
        <mxCell id="iH4nYuXcYwgbLmIbxw34-52" style="edgeStyle=orthogonalEdgeStyle;rounded=0;orthogonalLoop=1;jettySize=auto;html=1;exitX=1;exitY=0.5;exitDx=0;exitDy=0;entryX=0;entryY=0.5;entryDx=0;entryDy=0;" edge="1" parent="1" target="iH4nYuXcYwgbLmIbxw34-51">
          <mxGeometry relative="1" as="geometry">
            <mxPoint x="284" y="230" as="sourcePoint" />
            <mxPoint x="314" y="185" as="targetPoint" />
            <Array as="points" />
          </mxGeometry>
        </mxCell>
        <mxCell id="iH4nYuXcYwgbLmIbxw34-53" value="Z16/&lt;span style=&quot;background-color: light-dark(#ffffff, var(--ge-dark-color, #121212)); color: light-dark(rgb(0, 0, 0), rgb(255, 255, 255));&quot;&gt;3&lt;/span&gt;" style="edgeLabel;html=1;align=center;verticalAlign=middle;resizable=0;points=[];" vertex="1" connectable="0" parent="iH4nYuXcYwgbLmIbxw34-52">
          <mxGeometry x="-0.0224" y="2" relative="1" as="geometry">
            <mxPoint x="-4" y="2" as="offset" />
          </mxGeometry>
        </mxCell>
        <mxCell id="iH4nYuXcYwgbLmIbxw34-54" value="33" style="ellipse;whiteSpace=wrap;html=1;aspect=fixed;" vertex="1" parent="1">
          <mxGeometry x="354" y="80" width="30" height="30" as="geometry" />
        </mxCell>
        <mxCell id="iH4nYuXcYwgbLmIbxw34-55" style="edgeStyle=orthogonalEdgeStyle;rounded=0;orthogonalLoop=1;jettySize=auto;html=1;exitX=1;exitY=0.5;exitDx=0;exitDy=0;entryX=0;entryY=0.5;entryDx=0;entryDy=0;" edge="1" parent="1" target="iH4nYuXcYwgbLmIbxw34-54">
          <mxGeometry relative="1" as="geometry">
            <mxPoint x="284" y="95" as="sourcePoint" />
            <mxPoint x="314" y="50" as="targetPoint" />
            <Array as="points" />
          </mxGeometry>
        </mxCell>
        <mxCell id="iH4nYuXcYwgbLmIbxw34-56" value="Z17&lt;span style=&quot;background-color: light-dark(#ffffff, var(--ge-dark-color, #121212)); color: light-dark(rgb(0, 0, 0), rgb(255, 255, 255));&quot;&gt;/3&lt;/span&gt;" style="edgeLabel;html=1;align=center;verticalAlign=middle;resizable=0;points=[];" vertex="1" connectable="0" parent="iH4nYuXcYwgbLmIbxw34-55">
          <mxGeometry x="-0.0224" y="2" relative="1" as="geometry">
            <mxPoint x="-4" y="2" as="offset" />
          </mxGeometry>
        </mxCell>
        <mxCell id="iH4nYuXcYwgbLmIbxw34-58" value="34" style="ellipse;whiteSpace=wrap;html=1;aspect=fixed;" vertex="1" parent="1">
          <mxGeometry x="670" y="260" width="30" height="30" as="geometry" />
        </mxCell>
        <mxCell id="iH4nYuXcYwgbLmIbxw34-60" value="35" style="ellipse;whiteSpace=wrap;html=1;aspect=fixed;" vertex="1" parent="1">
          <mxGeometry x="770" y="260" width="30" height="30" as="geometry" />
        </mxCell>
        <mxCell id="iH4nYuXcYwgbLmIbxw34-61" style="edgeStyle=orthogonalEdgeStyle;rounded=0;orthogonalLoop=1;jettySize=auto;html=1;exitX=1;exitY=0.5;exitDx=0;exitDy=0;entryX=0;entryY=0.5;entryDx=0;entryDy=0;" edge="1" parent="1" target="iH4nYuXcYwgbLmIbxw34-60">
          <mxGeometry relative="1" as="geometry">
            <mxPoint x="700" y="275" as="sourcePoint" />
            <mxPoint x="730" y="230" as="targetPoint" />
            <Array as="points" />
          </mxGeometry>
        </mxCell>
        <mxCell id="iH4nYuXcYwgbLmIbxw34-62" value="Z18&lt;span style=&quot;background-color: light-dark(#ffffff, var(--ge-dark-color, #121212)); color: light-dark(rgb(0, 0, 0), rgb(255, 255, 255));&quot;&gt;/4&lt;/span&gt;" style="edgeLabel;html=1;align=center;verticalAlign=middle;resizable=0;points=[];" vertex="1" connectable="0" parent="iH4nYuXcYwgbLmIbxw34-61">
          <mxGeometry x="-0.0224" y="2" relative="1" as="geometry">
            <mxPoint x="-4" y="2" as="offset" />
          </mxGeometry>
        </mxCell>
        <mxCell id="iH4nYuXcYwgbLmIbxw34-67" value="&lt;div&gt;&lt;br&gt;&lt;/div&gt;&lt;div&gt;&lt;br&gt;&lt;/div&gt;" style="html=1;verticalAlign=bottom;endArrow=open;dashed=1;endSize=8;curved=0;rounded=0;exitX=1;exitY=0.5;exitDx=0;exitDy=0;entryX=0;entryY=0.5;entryDx=0;entryDy=0;" edge="1" parent="1" source="iH4nYuXcYwgbLmIbxw34-54" target="iH4nYuXcYwgbLmIbxw34-18">
          <mxGeometry relative="1" as="geometry">
            <mxPoint x="394" y="45" as="sourcePoint" />
            <mxPoint x="480" y="70" as="targetPoint" />
          </mxGeometry>
        </mxCell>
        <mxCell id="iH4nYuXcYwgbLmIbxw34-68" value="8" style="ellipse;whiteSpace=wrap;html=1;aspect=fixed;" vertex="1" parent="1">
          <mxGeometry x="460" y="35" width="30" height="30" as="geometry" />
        </mxCell>
        <mxCell id="iH4nYuXcYwgbLmIbxw34-69" value="&lt;div&gt;&lt;br&gt;&lt;/div&gt;&lt;div&gt;&lt;br&gt;&lt;/div&gt;" style="html=1;verticalAlign=bottom;endArrow=open;dashed=1;endSize=8;curved=0;rounded=0;exitX=1;exitY=0.5;exitDx=0;exitDy=0;entryX=0;entryY=0.5;entryDx=0;entryDy=0;" edge="1" parent="1" target="iH4nYuXcYwgbLmIbxw34-68" source="iH4nYuXcYwgbLmIbxw34-54">
          <mxGeometry relative="1" as="geometry">
            <mxPoint x="384" y="100" as="sourcePoint" />
            <mxPoint x="448.3933982822018" y="119.39339828220182" as="targetPoint" />
          </mxGeometry>
        </mxCell>
        <mxCell id="iH4nYuXcYwgbLmIbxw34-70" value="9" style="ellipse;whiteSpace=wrap;html=1;aspect=fixed;" vertex="1" parent="1">
          <mxGeometry x="560" y="35" width="30" height="30" as="geometry" />
        </mxCell>
        <mxCell id="iH4nYuXcYwgbLmIbxw34-71" style="edgeStyle=orthogonalEdgeStyle;rounded=0;orthogonalLoop=1;jettySize=auto;html=1;exitX=1;exitY=0.5;exitDx=0;exitDy=0;entryX=0;entryY=0.5;entryDx=0;entryDy=0;" edge="1" parent="1" source="iH4nYuXcYwgbLmIbxw34-68" target="iH4nYuXcYwgbLmIbxw34-70">
          <mxGeometry relative="1" as="geometry">
            <mxPoint x="490" y="50" as="sourcePoint" />
            <mxPoint x="400" y="60" as="targetPoint" />
          </mxGeometry>
        </mxCell>
        <mxCell id="iH4nYuXcYwgbLmIbxw34-72" value="Z5/3" style="edgeLabel;html=1;align=center;verticalAlign=middle;resizable=0;points=[];" vertex="1" connectable="0" parent="iH4nYuXcYwgbLmIbxw34-71">
          <mxGeometry x="-0.0224" y="2" relative="1" as="geometry">
            <mxPoint x="-4" y="2" as="offset" />
          </mxGeometry>
        </mxCell>
        <mxCell id="iH4nYuXcYwgbLmIbxw34-73" value="&lt;div&gt;&lt;br&gt;&lt;/div&gt;&lt;div&gt;&lt;br&gt;&lt;/div&gt;" style="html=1;verticalAlign=bottom;endArrow=open;dashed=1;endSize=8;curved=0;rounded=0;exitX=1;exitY=0.5;exitDx=0;exitDy=0;entryX=0;entryY=0.5;entryDx=0;entryDy=0;" edge="1" parent="1" target="iH4nYuXcYwgbLmIbxw34-68" source="iH4nYuXcYwgbLmIbxw34-48">
          <mxGeometry relative="1" as="geometry">
            <mxPoint x="384" y="130" as="sourcePoint" />
            <mxPoint x="480" y="105" as="targetPoint" />
          </mxGeometry>
        </mxCell>
        <mxCell id="iH4nYuXcYwgbLmIbxw34-78" value="12" style="ellipse;whiteSpace=wrap;html=1;aspect=fixed;" vertex="1" parent="1">
          <mxGeometry x="670" y="140" width="30" height="30" as="geometry" />
        </mxCell>
        <mxCell id="iH4nYuXcYwgbLmIbxw34-79" value="13" style="ellipse;whiteSpace=wrap;html=1;aspect=fixed;" vertex="1" parent="1">
          <mxGeometry x="770" y="140" width="30" height="30" as="geometry" />
        </mxCell>
        <mxCell id="iH4nYuXcYwgbLmIbxw34-80" style="edgeStyle=orthogonalEdgeStyle;rounded=0;orthogonalLoop=1;jettySize=auto;html=1;exitX=1;exitY=0.5;exitDx=0;exitDy=0;entryX=0;entryY=0.5;entryDx=0;entryDy=0;" edge="1" parent="1" source="iH4nYuXcYwgbLmIbxw34-78" target="iH4nYuXcYwgbLmIbxw34-79">
          <mxGeometry relative="1" as="geometry">
            <mxPoint x="700" y="155" as="sourcePoint" />
            <mxPoint x="610" y="165" as="targetPoint" />
          </mxGeometry>
        </mxCell>
        <mxCell id="iH4nYuXcYwgbLmIbxw34-81" value="Z7/3" style="edgeLabel;html=1;align=center;verticalAlign=middle;resizable=0;points=[];" vertex="1" connectable="0" parent="iH4nYuXcYwgbLmIbxw34-80">
          <mxGeometry x="-0.0224" y="2" relative="1" as="geometry">
            <mxPoint x="-4" y="2" as="offset" />
          </mxGeometry>
        </mxCell>
        <mxCell id="iH4nYuXcYwgbLmIbxw34-88" value="&lt;div&gt;&lt;br&gt;&lt;/div&gt;&lt;div&gt;&lt;br&gt;&lt;/div&gt;" style="html=1;verticalAlign=bottom;endArrow=open;dashed=1;endSize=8;curved=0;rounded=0;entryX=0;entryY=0.5;entryDx=0;entryDy=0;" edge="1" parent="1" target="iH4nYuXcYwgbLmIbxw34-96">
          <mxGeometry relative="1" as="geometry">
            <mxPoint x="620" y="-80" as="sourcePoint" />
            <mxPoint x="670" y="160" as="targetPoint" />
            <Array as="points">
              <mxPoint x="620" y="140" />
            </Array>
          </mxGeometry>
        </mxCell>
        <mxCell id="iH4nYuXcYwgbLmIbxw34-90" value="" style="endArrow=none;dashed=1;html=1;rounded=0;exitX=1;exitY=0.5;exitDx=0;exitDy=0;" edge="1" parent="1" source="iH4nYuXcYwgbLmIbxw34-48">
          <mxGeometry width="50" height="50" relative="1" as="geometry">
            <mxPoint x="390" y="130" as="sourcePoint" />
            <mxPoint x="620" y="140" as="targetPoint" />
          </mxGeometry>
        </mxCell>
        <mxCell id="iH4nYuXcYwgbLmIbxw34-92" value="" style="endArrow=none;dashed=1;html=1;rounded=0;exitX=1;exitY=0.5;exitDx=0;exitDy=0;" edge="1" parent="1">
          <mxGeometry width="50" height="50" relative="1" as="geometry">
            <mxPoint x="590" y="49.56999999999999" as="sourcePoint" />
            <mxPoint x="620" y="49.56999999999999" as="targetPoint" />
          </mxGeometry>
        </mxCell>
        <mxCell id="iH4nYuXcYwgbLmIbxw34-93" value="" style="endArrow=none;dashed=1;html=1;rounded=0;exitX=1;exitY=0.5;exitDx=0;exitDy=0;" edge="1" parent="1">
          <mxGeometry width="50" height="50" relative="1" as="geometry">
            <mxPoint x="590" y="-15.219999999999999" as="sourcePoint" />
            <mxPoint x="620" y="-15.219999999999999" as="targetPoint" />
          </mxGeometry>
        </mxCell>
        <mxCell id="iH4nYuXcYwgbLmIbxw34-95" value="&lt;div&gt;&lt;br&gt;&lt;/div&gt;&lt;div&gt;&lt;br&gt;&lt;/div&gt;" style="html=1;verticalAlign=bottom;endArrow=open;dashed=1;endSize=8;curved=0;rounded=0;entryX=0;entryY=0.5;entryDx=0;entryDy=0;" edge="1" parent="1" target="iH4nYuXcYwgbLmIbxw34-78">
          <mxGeometry relative="1" as="geometry">
            <mxPoint x="620" y="140" as="sourcePoint" />
            <mxPoint x="470" y="30" as="targetPoint" />
          </mxGeometry>
        </mxCell>
        <mxCell id="iH4nYuXcYwgbLmIbxw34-96" value="10" style="ellipse;whiteSpace=wrap;html=1;aspect=fixed;" vertex="1" parent="1">
          <mxGeometry x="670" y="80" width="30" height="30" as="geometry" />
        </mxCell>
        <mxCell id="iH4nYuXcYwgbLmIbxw34-97" value="11" style="ellipse;whiteSpace=wrap;html=1;aspect=fixed;" vertex="1" parent="1">
          <mxGeometry x="770" y="80" width="30" height="30" as="geometry" />
        </mxCell>
        <mxCell id="iH4nYuXcYwgbLmIbxw34-98" style="edgeStyle=orthogonalEdgeStyle;rounded=0;orthogonalLoop=1;jettySize=auto;html=1;exitX=1;exitY=0.5;exitDx=0;exitDy=0;entryX=0;entryY=0.5;entryDx=0;entryDy=0;" edge="1" parent="1" source="iH4nYuXcYwgbLmIbxw34-96" target="iH4nYuXcYwgbLmIbxw34-97">
          <mxGeometry relative="1" as="geometry">
            <mxPoint x="700" y="95" as="sourcePoint" />
            <mxPoint x="610" y="105" as="targetPoint" />
          </mxGeometry>
        </mxCell>
        <mxCell id="iH4nYuXcYwgbLmIbxw34-99" value="Z6/5" style="edgeLabel;html=1;align=center;verticalAlign=middle;resizable=0;points=[];" vertex="1" connectable="0" parent="iH4nYuXcYwgbLmIbxw34-98">
          <mxGeometry x="-0.0224" y="2" relative="1" as="geometry">
            <mxPoint x="-4" y="2" as="offset" />
          </mxGeometry>
        </mxCell>
        <mxCell id="iH4nYuXcYwgbLmIbxw34-101" value="14" style="ellipse;whiteSpace=wrap;html=1;aspect=fixed;" vertex="1" parent="1">
          <mxGeometry x="670" y="200" width="30" height="30" as="geometry" />
        </mxCell>
        <mxCell id="iH4nYuXcYwgbLmIbxw34-102" value="15" style="ellipse;whiteSpace=wrap;html=1;aspect=fixed;" vertex="1" parent="1">
          <mxGeometry x="770" y="200" width="30" height="30" as="geometry" />
        </mxCell>
        <mxCell id="iH4nYuXcYwgbLmIbxw34-103" style="edgeStyle=orthogonalEdgeStyle;rounded=0;orthogonalLoop=1;jettySize=auto;html=1;exitX=1;exitY=0.5;exitDx=0;exitDy=0;entryX=0;entryY=0.5;entryDx=0;entryDy=0;" edge="1" parent="1" source="iH4nYuXcYwgbLmIbxw34-101" target="iH4nYuXcYwgbLmIbxw34-102">
          <mxGeometry relative="1" as="geometry">
            <mxPoint x="700" y="215" as="sourcePoint" />
            <mxPoint x="610" y="225" as="targetPoint" />
          </mxGeometry>
        </mxCell>
        <mxCell id="iH4nYuXcYwgbLmIbxw34-104" value="Z8/9" style="edgeLabel;html=1;align=center;verticalAlign=middle;resizable=0;points=[];" vertex="1" connectable="0" parent="iH4nYuXcYwgbLmIbxw34-103">
          <mxGeometry x="-0.0224" y="2" relative="1" as="geometry">
            <mxPoint x="-4" y="2" as="offset" />
          </mxGeometry>
        </mxCell>
        <mxCell id="iH4nYuXcYwgbLmIbxw34-106" value="&lt;div&gt;&lt;br&gt;&lt;/div&gt;&lt;div&gt;&lt;br&gt;&lt;/div&gt;" style="html=1;verticalAlign=bottom;endArrow=open;dashed=1;endSize=8;curved=0;rounded=0;entryX=0;entryY=0.5;entryDx=0;entryDy=0;" edge="1" parent="1" target="iH4nYuXcYwgbLmIbxw34-101">
          <mxGeometry relative="1" as="geometry">
            <mxPoint x="620" y="140" as="sourcePoint" />
            <mxPoint x="680" y="105" as="targetPoint" />
          </mxGeometry>
        </mxCell>
        <mxCell id="iH4nYuXcYwgbLmIbxw34-108" value="&lt;div&gt;&lt;br&gt;&lt;/div&gt;&lt;div&gt;&lt;br&gt;&lt;/div&gt;" style="html=1;verticalAlign=bottom;endArrow=open;dashed=1;endSize=8;curved=0;rounded=0;exitX=1;exitY=0.5;exitDx=0;exitDy=0;entryX=0;entryY=0.5;entryDx=0;entryDy=0;" edge="1" parent="1" source="XW4laHf70i-aS3ndhYvc-2" target="iH4nYuXcYwgbLmIbxw34-33">
          <mxGeometry relative="1" as="geometry">
            <mxPoint x="190" y="190" as="sourcePoint" />
            <mxPoint x="266" y="75" as="targetPoint" />
          </mxGeometry>
        </mxCell>
        <mxCell id="iH4nYuXcYwgbLmIbxw34-109" value="&lt;div&gt;&lt;br&gt;&lt;/div&gt;&lt;div&gt;&lt;br&gt;&lt;/div&gt;" style="html=1;verticalAlign=bottom;endArrow=open;dashed=1;endSize=8;curved=0;rounded=0;exitX=1;exitY=0.5;exitDx=0;exitDy=0;entryX=0;entryY=0.5;entryDx=0;entryDy=0;" edge="1" parent="1" source="XW4laHf70i-aS3ndhYvc-2" target="iH4nYuXcYwgbLmIbxw34-5">
          <mxGeometry relative="1" as="geometry">
            <mxPoint x="200" y="195" as="sourcePoint" />
            <mxPoint x="264" y="75" as="targetPoint" />
          </mxGeometry>
        </mxCell>
        <mxCell id="iH4nYuXcYwgbLmIbxw34-110" value="&lt;div&gt;&lt;br&gt;&lt;/div&gt;&lt;div&gt;&lt;br&gt;&lt;/div&gt;" style="html=1;verticalAlign=bottom;endArrow=open;dashed=1;endSize=8;curved=0;rounded=0;exitX=1;exitY=0.5;exitDx=0;exitDy=0;entryX=0;entryY=0.5;entryDx=0;entryDy=0;" edge="1" parent="1" source="XW4laHf70i-aS3ndhYvc-2" target="iH4nYuXcYwgbLmIbxw34-39">
          <mxGeometry relative="1" as="geometry">
            <mxPoint x="210" y="205" as="sourcePoint" />
            <mxPoint x="274" y="85" as="targetPoint" />
          </mxGeometry>
        </mxCell>
        <mxCell id="iH4nYuXcYwgbLmIbxw34-112" value="&lt;div&gt;&lt;br&gt;&lt;/div&gt;&lt;div&gt;&lt;br&gt;&lt;/div&gt;" style="html=1;verticalAlign=bottom;endArrow=open;dashed=1;endSize=8;curved=0;rounded=0;entryX=0;entryY=0.5;entryDx=0;entryDy=0;exitX=1;exitY=0.5;exitDx=0;exitDy=0;" edge="1" parent="1" source="XW4laHf70i-aS3ndhYvc-2" target="iH4nYuXcYwgbLmIbxw34-30">
          <mxGeometry relative="1" as="geometry">
            <mxPoint x="190" y="180" as="sourcePoint" />
            <mxPoint x="254" y="180" as="targetPoint" />
          </mxGeometry>
        </mxCell>
        <mxCell id="iH4nYuXcYwgbLmIbxw34-113" value="&lt;div&gt;&lt;br&gt;&lt;/div&gt;&lt;div&gt;&lt;br&gt;&lt;/div&gt;" style="html=1;verticalAlign=bottom;endArrow=open;dashed=1;endSize=8;curved=0;rounded=0;entryX=0;entryY=0.5;entryDx=0;entryDy=0;exitX=1;exitY=0.5;exitDx=0;exitDy=0;" edge="1" parent="1" source="XW4laHf70i-aS3ndhYvc-2" target="iH4nYuXcYwgbLmIbxw34-36">
          <mxGeometry relative="1" as="geometry">
            <mxPoint x="200" y="195" as="sourcePoint" />
            <mxPoint x="264" y="185" as="targetPoint" />
          </mxGeometry>
        </mxCell>
        <mxCell id="iH4nYuXcYwgbLmIbxw34-114" value="&lt;div&gt;&lt;br&gt;&lt;/div&gt;&lt;div&gt;&lt;br&gt;&lt;/div&gt;" style="html=1;verticalAlign=bottom;endArrow=open;dashed=1;endSize=8;curved=0;rounded=0;entryX=0;entryY=0.5;entryDx=0;entryDy=0;exitX=1;exitY=0.5;exitDx=0;exitDy=0;" edge="1" parent="1" source="XW4laHf70i-aS3ndhYvc-2" target="iH4nYuXcYwgbLmIbxw34-58">
          <mxGeometry relative="1" as="geometry">
            <mxPoint x="200" y="195" as="sourcePoint" />
            <mxPoint x="264" y="235" as="targetPoint" />
            <Array as="points">
              <mxPoint x="260" y="275" />
            </Array>
          </mxGeometry>
        </mxCell>
        <mxCell id="iH4nYuXcYwgbLmIbxw34-117" value="18" style="ellipse;whiteSpace=wrap;html=1;aspect=fixed;" vertex="1" parent="1">
          <mxGeometry x="909" y="202.5" width="30" height="30" as="geometry" />
        </mxCell>
        <mxCell id="iH4nYuXcYwgbLmIbxw34-118" value="19" style="ellipse;whiteSpace=wrap;html=1;aspect=fixed;" vertex="1" parent="1">
          <mxGeometry x="980" y="202.5" width="30" height="30" as="geometry" />
        </mxCell>
        <mxCell id="iH4nYuXcYwgbLmIbxw34-119" style="edgeStyle=orthogonalEdgeStyle;rounded=0;orthogonalLoop=1;jettySize=auto;html=1;exitX=1;exitY=0.5;exitDx=0;exitDy=0;" edge="1" parent="1" source="iH4nYuXcYwgbLmIbxw34-117" target="iH4nYuXcYwgbLmIbxw34-118">
          <mxGeometry relative="1" as="geometry">
            <mxPoint x="939" y="217.5" as="sourcePoint" />
            <mxPoint x="849" y="227.5" as="targetPoint" />
          </mxGeometry>
        </mxCell>
        <mxCell id="iH4nYuXcYwgbLmIbxw34-120" value="Z10/4" style="edgeLabel;html=1;align=center;verticalAlign=middle;resizable=0;points=[];" vertex="1" connectable="0" parent="iH4nYuXcYwgbLmIbxw34-119">
          <mxGeometry x="-0.0224" y="2" relative="1" as="geometry">
            <mxPoint x="-4" y="2" as="offset" />
          </mxGeometry>
        </mxCell>
        <mxCell id="iH4nYuXcYwgbLmIbxw34-122" value="&lt;div&gt;&lt;br&gt;&lt;/div&gt;&lt;div&gt;&lt;br&gt;&lt;/div&gt;" style="html=1;verticalAlign=bottom;endArrow=open;dashed=1;endSize=8;curved=0;rounded=0;entryX=0;entryY=0.5;entryDx=0;entryDy=0;" edge="1" parent="1" target="iH4nYuXcYwgbLmIbxw34-117">
          <mxGeometry relative="1" as="geometry">
            <mxPoint x="870" y="190" as="sourcePoint" />
            <mxPoint x="690" y="90" as="targetPoint" />
          </mxGeometry>
        </mxCell>
        <mxCell id="iH4nYuXcYwgbLmIbxw34-128" value="" style="endArrow=none;dashed=1;html=1;rounded=0;exitX=1;exitY=0.5;exitDx=0;exitDy=0;" edge="1" parent="1" source="iH4nYuXcYwgbLmIbxw34-79">
          <mxGeometry width="50" height="50" relative="1" as="geometry">
            <mxPoint x="810" y="105" as="sourcePoint" />
            <mxPoint x="840" y="155" as="targetPoint" />
          </mxGeometry>
        </mxCell>
        <mxCell id="iH4nYuXcYwgbLmIbxw34-129" value="" style="endArrow=none;dashed=1;html=1;rounded=0;exitX=1;exitY=0.5;exitDx=0;exitDy=0;" edge="1" parent="1">
          <mxGeometry width="50" height="50" relative="1" as="geometry">
            <mxPoint x="800" y="214.79000000000002" as="sourcePoint" />
            <mxPoint x="840" y="214.79000000000002" as="targetPoint" />
          </mxGeometry>
        </mxCell>
        <mxCell id="iH4nYuXcYwgbLmIbxw34-130" value="" style="endArrow=none;dashed=1;html=1;rounded=0;exitX=1;exitY=0.5;exitDx=0;exitDy=0;" edge="1" parent="1">
          <mxGeometry width="50" height="50" relative="1" as="geometry">
            <mxPoint x="800" y="274.78999999999996" as="sourcePoint" />
            <mxPoint x="870" y="190" as="targetPoint" />
            <Array as="points">
              <mxPoint x="870" y="275" />
            </Array>
          </mxGeometry>
        </mxCell>
        <mxCell id="iH4nYuXcYwgbLmIbxw34-131" value="" style="endArrow=none;dashed=1;html=1;rounded=0;" edge="1" parent="1">
          <mxGeometry width="50" height="50" relative="1" as="geometry">
            <mxPoint x="839" y="96" as="sourcePoint" />
            <mxPoint x="838" y="214" as="targetPoint" />
          </mxGeometry>
        </mxCell>
        <mxCell id="iH4nYuXcYwgbLmIbxw34-132" value="&lt;div&gt;&lt;br&gt;&lt;/div&gt;&lt;div&gt;&lt;br&gt;&lt;/div&gt;" style="html=1;verticalAlign=bottom;endArrow=open;dashed=1;endSize=8;curved=0;rounded=0;entryX=0;entryY=0.5;entryDx=0;entryDy=0;" edge="1" parent="1" target="iH4nYuXcYwgbLmIbxw34-133">
          <mxGeometry relative="1" as="geometry">
            <mxPoint x="870" y="190" as="sourcePoint" />
            <mxPoint x="890" y="210" as="targetPoint" />
          </mxGeometry>
        </mxCell>
        <mxCell id="iH4nYuXcYwgbLmIbxw34-133" value="16" style="ellipse;whiteSpace=wrap;html=1;aspect=fixed;" vertex="1" parent="1">
          <mxGeometry x="910" y="137.5" width="30" height="30" as="geometry" />
        </mxCell>
        <mxCell id="iH4nYuXcYwgbLmIbxw34-134" value="17" style="ellipse;whiteSpace=wrap;html=1;aspect=fixed;" vertex="1" parent="1">
          <mxGeometry x="981" y="137.5" width="30" height="30" as="geometry" />
        </mxCell>
        <mxCell id="iH4nYuXcYwgbLmIbxw34-135" style="edgeStyle=orthogonalEdgeStyle;rounded=0;orthogonalLoop=1;jettySize=auto;html=1;exitX=1;exitY=0.5;exitDx=0;exitDy=0;entryX=0;entryY=0.5;entryDx=0;entryDy=0;" edge="1" parent="1" source="iH4nYuXcYwgbLmIbxw34-133" target="iH4nYuXcYwgbLmIbxw34-134">
          <mxGeometry relative="1" as="geometry">
            <mxPoint x="940" y="152.5" as="sourcePoint" />
            <mxPoint x="850" y="162.5" as="targetPoint" />
          </mxGeometry>
        </mxCell>
        <mxCell id="iH4nYuXcYwgbLmIbxw34-136" value="Z9/5" style="edgeLabel;html=1;align=center;verticalAlign=middle;resizable=0;points=[];" vertex="1" connectable="0" parent="iH4nYuXcYwgbLmIbxw34-135">
          <mxGeometry x="-0.0224" y="2" relative="1" as="geometry">
            <mxPoint x="-4" y="2" as="offset" />
          </mxGeometry>
        </mxCell>
        <mxCell id="iH4nYuXcYwgbLmIbxw34-138" value="" style="endArrow=none;dashed=1;html=1;rounded=0;" edge="1" parent="1">
          <mxGeometry width="50" height="50" relative="1" as="geometry">
            <mxPoint x="840" y="190" as="sourcePoint" />
            <mxPoint x="870" y="190" as="targetPoint" />
          </mxGeometry>
        </mxCell>
        <mxCell id="iH4nYuXcYwgbLmIbxw34-140" value="&lt;div&gt;&lt;br&gt;&lt;/div&gt;&lt;div&gt;&lt;br&gt;&lt;/div&gt;" style="html=1;verticalAlign=bottom;endArrow=open;dashed=1;endSize=8;curved=0;rounded=0;entryX=0;entryY=0.5;entryDx=0;entryDy=0;exitX=1;exitY=0.5;exitDx=0;exitDy=0;" edge="1" parent="1" source="iH4nYuXcYwgbLmIbxw34-97" target="iH4nYuXcYwgbLmIbxw34-141">
          <mxGeometry relative="1" as="geometry">
            <mxPoint x="840" y="94" as="sourcePoint" />
            <mxPoint x="880" y="57" as="targetPoint" />
          </mxGeometry>
        </mxCell>
        <mxCell id="iH4nYuXcYwgbLmIbxw34-141" value="20" style="ellipse;whiteSpace=wrap;html=1;aspect=fixed;" vertex="1" parent="1">
          <mxGeometry x="1070" y="80" width="30" height="30" as="geometry" />
        </mxCell>
        <mxCell id="iH4nYuXcYwgbLmIbxw34-142" value="21" style="ellipse;whiteSpace=wrap;html=1;aspect=fixed;" vertex="1" parent="1">
          <mxGeometry x="1150" y="80" width="30" height="30" as="geometry" />
        </mxCell>
        <mxCell id="iH4nYuXcYwgbLmIbxw34-143" style="edgeStyle=orthogonalEdgeStyle;rounded=0;orthogonalLoop=1;jettySize=auto;html=1;exitX=1;exitY=0.5;exitDx=0;exitDy=0;entryX=0;entryY=0.5;entryDx=0;entryDy=0;" edge="1" parent="1" source="iH4nYuXcYwgbLmIbxw34-141" target="iH4nYuXcYwgbLmIbxw34-142">
          <mxGeometry relative="1" as="geometry">
            <mxPoint x="1100" y="95" as="sourcePoint" />
            <mxPoint x="1010" y="105" as="targetPoint" />
          </mxGeometry>
        </mxCell>
        <mxCell id="iH4nYuXcYwgbLmIbxw34-144" value="Z11/3" style="edgeLabel;html=1;align=center;verticalAlign=middle;resizable=0;points=[];" vertex="1" connectable="0" parent="iH4nYuXcYwgbLmIbxw34-143">
          <mxGeometry x="-0.0224" y="2" relative="1" as="geometry">
            <mxPoint x="-4" y="2" as="offset" />
          </mxGeometry>
        </mxCell>
        <mxCell id="iH4nYuXcYwgbLmIbxw34-145" value="&lt;div&gt;&lt;br&gt;&lt;/div&gt;&lt;div&gt;&lt;br&gt;&lt;/div&gt;" style="html=1;verticalAlign=bottom;endArrow=open;dashed=1;endSize=8;curved=0;rounded=0;entryX=0;entryY=0.5;entryDx=0;entryDy=0;exitX=1;exitY=0.5;exitDx=0;exitDy=0;" edge="1" parent="1" source="iH4nYuXcYwgbLmIbxw34-134" target="iH4nYuXcYwgbLmIbxw34-141">
          <mxGeometry relative="1" as="geometry">
            <mxPoint x="850" y="104" as="sourcePoint" />
            <mxPoint x="1090" y="60" as="targetPoint" />
          </mxGeometry>
        </mxCell>
        <mxCell id="iH4nYuXcYwgbLmIbxw34-146" value="22" style="ellipse;whiteSpace=wrap;html=1;aspect=fixed;" vertex="1" parent="1">
          <mxGeometry x="1200" y="137.5" width="30" height="30" as="geometry" />
        </mxCell>
        <mxCell id="iH4nYuXcYwgbLmIbxw34-147" value="23" style="ellipse;whiteSpace=wrap;html=1;aspect=fixed;" vertex="1" parent="1">
          <mxGeometry x="1283" y="137.5" width="30" height="30" as="geometry" />
        </mxCell>
        <mxCell id="iH4nYuXcYwgbLmIbxw34-148" style="edgeStyle=orthogonalEdgeStyle;rounded=0;orthogonalLoop=1;jettySize=auto;html=1;exitX=1;exitY=0.5;exitDx=0;exitDy=0;entryX=0;entryY=0.5;entryDx=0;entryDy=0;" edge="1" parent="1" source="iH4nYuXcYwgbLmIbxw34-146" target="iH4nYuXcYwgbLmIbxw34-147">
          <mxGeometry relative="1" as="geometry">
            <mxPoint x="1230" y="152.5" as="sourcePoint" />
            <mxPoint x="1140" y="162.5" as="targetPoint" />
          </mxGeometry>
        </mxCell>
        <mxCell id="iH4nYuXcYwgbLmIbxw34-149" value="Z12/3" style="edgeLabel;html=1;align=center;verticalAlign=middle;resizable=0;points=[];" vertex="1" connectable="0" parent="iH4nYuXcYwgbLmIbxw34-148">
          <mxGeometry x="-0.0224" y="2" relative="1" as="geometry">
            <mxPoint x="-4" y="2" as="offset" />
          </mxGeometry>
        </mxCell>
        <mxCell id="iH4nYuXcYwgbLmIbxw34-150" value="&lt;div&gt;&lt;br&gt;&lt;/div&gt;&lt;div&gt;&lt;br&gt;&lt;/div&gt;" style="html=1;verticalAlign=bottom;endArrow=open;dashed=1;endSize=8;curved=0;rounded=0;entryX=0;entryY=0.5;entryDx=0;entryDy=0;exitX=1;exitY=0.5;exitDx=0;exitDy=0;" edge="1" parent="1" source="iH4nYuXcYwgbLmIbxw34-134" target="iH4nYuXcYwgbLmIbxw34-146">
          <mxGeometry relative="1" as="geometry">
            <mxPoint x="1040" y="150" as="sourcePoint" />
            <mxPoint x="1270" y="160" as="targetPoint" />
          </mxGeometry>
        </mxCell>
        <mxCell id="iH4nYuXcYwgbLmIbxw34-151" value="&lt;div&gt;&lt;br&gt;&lt;/div&gt;&lt;div&gt;&lt;br&gt;&lt;/div&gt;" style="html=1;verticalAlign=bottom;endArrow=open;dashed=1;endSize=8;curved=0;rounded=0;entryX=0;entryY=0.5;entryDx=0;entryDy=0;exitX=1;exitY=0.5;exitDx=0;exitDy=0;" edge="1" parent="1" source="iH4nYuXcYwgbLmIbxw34-142" target="iH4nYuXcYwgbLmIbxw34-146">
          <mxGeometry relative="1" as="geometry">
            <mxPoint x="1019" y="173" as="sourcePoint" />
            <mxPoint x="1090" y="70" as="targetPoint" />
          </mxGeometry>
        </mxCell>
        <mxCell id="iH4nYuXcYwgbLmIbxw34-153" value="" style="endArrow=none;dashed=1;html=1;rounded=0;exitX=1;exitY=0.5;exitDx=0;exitDy=0;" edge="1" parent="1" source="iH4nYuXcYwgbLmIbxw34-118">
          <mxGeometry width="50" height="50" relative="1" as="geometry">
            <mxPoint x="850" y="200" as="sourcePoint" />
            <mxPoint x="1340" y="218" as="targetPoint" />
          </mxGeometry>
        </mxCell>
        <mxCell id="iH4nYuXcYwgbLmIbxw34-154" value="" style="endArrow=none;dashed=1;html=1;rounded=0;" edge="1" parent="1">
          <mxGeometry width="50" height="50" relative="1" as="geometry">
            <mxPoint x="1160" y="150" as="sourcePoint" />
            <mxPoint x="1160" y="220" as="targetPoint" />
          </mxGeometry>
        </mxCell>
        <mxCell id="iH4nYuXcYwgbLmIbxw34-155" value="" style="endArrow=none;dashed=1;html=1;rounded=0;exitX=1;exitY=0.5;exitDx=0;exitDy=0;" edge="1" parent="1" source="iH4nYuXcYwgbLmIbxw34-142">
          <mxGeometry width="50" height="50" relative="1" as="geometry">
            <mxPoint x="1200" y="100" as="sourcePoint" />
            <mxPoint x="1340" y="95" as="targetPoint" />
          </mxGeometry>
        </mxCell>
        <mxCell id="iH4nYuXcYwgbLmIbxw34-157" value="" style="endArrow=none;dashed=1;html=1;rounded=0;" edge="1" parent="1">
          <mxGeometry width="50" height="50" relative="1" as="geometry">
            <mxPoint x="1340" y="92" as="sourcePoint" />
            <mxPoint x="1340" y="218" as="targetPoint" />
          </mxGeometry>
        </mxCell>
        <mxCell id="iH4nYuXcYwgbLmIbxw34-158" value="&lt;div&gt;&lt;br&gt;&lt;/div&gt;&lt;div&gt;&lt;br&gt;&lt;/div&gt;" style="html=1;verticalAlign=bottom;endArrow=open;dashed=1;endSize=8;curved=0;rounded=0;exitX=1;exitY=0.5;exitDx=0;exitDy=0;entryX=0;entryY=0.5;entryDx=0;entryDy=0;" edge="1" parent="1" source="iH4nYuXcYwgbLmIbxw34-147" target="iH4nYuXcYwgbLmIbxw34-159">
          <mxGeometry relative="1" as="geometry">
            <mxPoint x="1210" y="115" as="sourcePoint" />
            <mxPoint x="1508" y="153" as="targetPoint" />
          </mxGeometry>
        </mxCell>
        <mxCell id="iH4nYuXcYwgbLmIbxw34-159" value="24" style="ellipse;whiteSpace=wrap;html=1;aspect=fixed;" vertex="1" parent="1">
          <mxGeometry x="1370" y="137.5" width="30" height="30" as="geometry" />
        </mxCell>
        <mxCell id="iH4nYuXcYwgbLmIbxw34-160" value="25" style="ellipse;whiteSpace=wrap;html=1;aspect=fixed;" vertex="1" parent="1">
          <mxGeometry x="1450" y="137.5" width="30" height="30" as="geometry" />
        </mxCell>
        <mxCell id="iH4nYuXcYwgbLmIbxw34-161" style="edgeStyle=orthogonalEdgeStyle;rounded=0;orthogonalLoop=1;jettySize=auto;html=1;exitX=1;exitY=0.5;exitDx=0;exitDy=0;entryX=0;entryY=0.5;entryDx=0;entryDy=0;" edge="1" parent="1" source="iH4nYuXcYwgbLmIbxw34-159" target="iH4nYuXcYwgbLmIbxw34-160">
          <mxGeometry relative="1" as="geometry">
            <mxPoint x="1400" y="152.5" as="sourcePoint" />
            <mxPoint x="1310" y="162.5" as="targetPoint" />
          </mxGeometry>
        </mxCell>
        <mxCell id="iH4nYuXcYwgbLmIbxw34-162" value="Z13/2" style="edgeLabel;html=1;align=center;verticalAlign=middle;resizable=0;points=[];" vertex="1" connectable="0" parent="iH4nYuXcYwgbLmIbxw34-161">
          <mxGeometry x="-0.0224" y="2" relative="1" as="geometry">
            <mxPoint x="-4" y="2" as="offset" />
          </mxGeometry>
        </mxCell>
        <mxCell id="iH4nYuXcYwgbLmIbxw34-164" value="" style="endArrow=none;dashed=1;html=1;rounded=0;exitX=1;exitY=0.5;exitDx=0;exitDy=0;" edge="1" parent="1" source="iH4nYuXcYwgbLmIbxw34-23">
          <mxGeometry width="50" height="50" relative="1" as="geometry">
            <mxPoint x="590" y="-85.22" as="sourcePoint" />
            <mxPoint x="620" y="-80" as="targetPoint" />
          </mxGeometry>
        </mxCell>
      </root>
    </mxGraphModel>
  </diagram>
</mxfile>
